<?xml version="1.0" encoding="utf-8"?>
<!-- Generator: Adobe Illustrator 16.0.0, SVG Export Plug-In . SVG Version: 6.00 Build 0)  -->
<!DOCTYPE svg PUBLIC "-//W3C//DTD SVG 1.1//EN" "http://www.w3.org/Graphics/SVG/1.1/DTD/svg11.dtd">
<svg version="1.1" id="Layer_1" xmlns="http://www.w3.org/2000/svg" xmlns:xlink="http://www.w3.org/1999/xlink" x="0px" y="0px"
	 width="16px" height="16px" viewBox="0 0 16 16" enable-background="new 0 0 16 16" xml:space="preserve">
<path d="M8,15.796H1.363c-0.272,0-0.441-0.123-0.441-0.393c0-2.451,0.044-5.61,0-6.7V5.105c0-0.298,0.157-0.352,0.43-0.352H8"/>
<path d="M8,15.796h6.637c0.271,0,0.441-0.123,0.441-0.393c0-2.451-0.045-5.61,0-6.7V5.105c0-0.298-0.157-0.352-0.43-0.352H8"/>
<path fill="none" stroke="#97C21E" stroke-width="0.5" stroke-miterlimit="10" d="M13.586,8.901c0.138-0.2,0.399-0.259,0.585-0.133
	c0.182,0.127,0.221,0.392,0.082,0.592"/>
<line fill="none" stroke="#97C21E" stroke-width="0.5" stroke-miterlimit="10" x1="13.6" y1="8.877" x2="10.48" y2="14.272"/>
<path fill="none" stroke="#97C21E" stroke-width="0.5" stroke-miterlimit="10" d="M9.319,12.381
	c-0.137-0.203-0.397-0.261-0.583-0.136c-0.185,0.127-0.224,0.392-0.085,0.595"/>
<path fill="none" stroke="#97C21E" stroke-width="0.5" stroke-miterlimit="10" d="M8.641,12.823l1.455,2.249
	c0.587,0.877,1.073-0.533,2.812-3.395l1.357-2.333"/>
<line fill="none" stroke="#97C21E" stroke-width="0.5" stroke-miterlimit="10" x1="9.319" y1="12.372" x2="10.48" y2="14.272"/>
<path fill="none" stroke="#97C21E" stroke-width="0.5" stroke-miterlimit="10" d="M10.437,14.247c0,0,0.044,0.122,0.089,0"/>
<path d="M0.922,4.301V2.226c0-0.094,0.159-0.373,0.504-0.373c3.142,0,13.089,0,13.089,0c0.382,0,0.563,0.336,0.563,0.43v2.017"/>
<rect x="2.113" y="5.959" fill="#97C21E" width="2.348" height="2.348"/>
<rect x="5.255" y="5.959" fill="#97C21E" width="2.348" height="2.348"/>
<rect x="8.342" y="5.959" fill="#97C21E" width="2.348" height="2.348"/>
<rect x="11.452" y="5.959" fill="#97C21E" width="2.349" height="2.348"/>
<rect x="2.141" y="9.101" fill="#97C21E" width="2.348" height="2.349"/>
<rect x="5.283" y="9.101" fill="#97C21E" width="2.348" height="2.349"/>
<rect x="8.37" y="9.101" fill="#97C21E" width="2.349" height="2.349"/>
<rect x="2.141" y="12.148" fill="#97C21E" width="2.348" height="2.349"/>
<rect x="5.283" y="12.148" fill="#97C21E" width="2.348" height="2.349"/>
</svg>
