<?xml version="1.0" encoding="utf-8"?>
<!-- Generator: Adobe Illustrator 16.0.0, SVG Export Plug-In . SVG Version: 6.00 Build 0)  -->
<!DOCTYPE svg PUBLIC "-//W3C//DTD SVG 1.1//EN" "http://www.w3.org/Graphics/SVG/1.1/DTD/svg11.dtd">
<svg version="1.1" id="Layer_1" xmlns="http://www.w3.org/2000/svg" xmlns:xlink="http://www.w3.org/1999/xlink" x="0px" y="0px"
	 width="16px" height="16px" viewBox="0 0 16 16" enable-background="new 0 0 16 16" xml:space="preserve">
<g>
	<g>
		<path fill="#040405" stroke="#97C11E" stroke-width="0.5" stroke-miterlimit="10" d="M8.088,14.664H2.753
			c-0.525,0-0.507-0.287-0.507-1.398V7.524c0-0.701,0.14-0.746,0.551-1.211"/>
		<path fill="#040405" stroke="#97C11E" stroke-width="0.5" stroke-miterlimit="10" d="M7.909,14.664h5.335
			c0.525,0,0.508-0.287,0.508-1.398V7.524c0-0.701,0-0.915-0.346-1.211"/>
	</g>
</g>
<path fill="#030404" stroke="#97C11E" stroke-width="0.5" stroke-miterlimit="10" d="M2.797,6.313l3.289-3.227
	c0,0,2.053-2.127,4.105,0l3.289,3.289"/>
<g>
	<g>
		<path fill="#040405" stroke="#97C11E" stroke-width="0.5" stroke-miterlimit="10" d="M8.088,14.664H2.73
			c-0.527,0-0.51-0.29-0.51-1.414V7.446c0-0.708,0.246-0.866,0.541-0.866h5.327"/>
		<path fill="#040405" stroke="#97C11E" stroke-width="0.5" stroke-miterlimit="10" d="M7.91,14.664h5.359
			c0.527,0,0.51-0.29,0.51-1.414V7.446c0-0.708-0.244-0.866-0.539-0.866H7.91"/>
	</g>
	<path fill="#040405" stroke="#97C11E" stroke-width="0.5" stroke-miterlimit="10" d="M13.631,6.7"/>
</g>
<g>
	<g>
		<path fill="#040405" stroke="#97C11E" stroke-width="0.5" stroke-miterlimit="10" d="M6.976,13.026v-1.542
			c0-0.151,0.083-0.146,0.407-0.146h1.67c0.204,0,0.249,0.07,0.249,0.155v1.533"/>
		<path fill="#040405" stroke="#97C11E" stroke-width="0.5" stroke-miterlimit="10" d="M6.976,12.975v1.543
			c0,0.151,0.083,0.146,0.407,0.146h1.67c0.204,0,0.249-0.07,0.249-0.155v-1.534"/>
	</g>
	<path fill="#040405" stroke="#97C11E" stroke-width="0.5" stroke-miterlimit="10" d="M9.268,14.621"/>
</g>
</svg>
